<svg xmlns="http://www.w3.org/2000/svg" xmlns:xlink="http://www.w3.org/1999/xlink" viewBox="0 0 512 512">
  <path d="M250.54 129.17l-67.8-67.8A209.65 209.65 0 0 0 86.32 136h161.4a4 4 0 0 0 2.82-6.83z" fill="currentColor" />
  <path d="M167.72 168H67.63a207.34 207.34 0 0 0-16.15 125.9l119.06-119.07a4 4 0 0 0-2.82-6.83z" fill="currentColor" />
  <path d="M344 167.72V67.56a207.82 207.82 0 0 0-125.89-16.08l119.06 119.06a4 4 0 0 0 6.83-2.82z" fill="currentColor" />
  <path d="M460.52 218.1L341.46 337.17a4 4 0 0 0 2.82 6.83h100.09a207.34 207.34 0 0 0 16.15-125.9z" fill="currentColor" />
  <path d="M382.83 250.54l67.83-67.82A209.08 209.08 0 0 0 376 86.2v161.52a4 4 0 0 0 6.83 2.82z" fill="currentColor" />
  <path d="M221.68 341.77a8 8 0 0 0 5.54 2.23h59.66a8 8 0 0 0 5.7-2.39l49.18-50a8 8 0 0 0 2.3-5.62l-.06-60.81a8 8 0 0 0-2.38-5.69l-50-49.25a8 8 0 0 0-5.63-2.3l-60.84.06a8 8 0 0 0-5.69 2.38l-49.25 50a8 8 0 0 0-2.3 5.63l.06 60.78a8 8 0 0 0 2.45 5.76z" fill="currentColor" />
  <path d="M261.46 382.83l67.8 67.8A209.65 209.65 0 0 0 425.68 376h-161.4a4 4 0 0 0-2.82 6.83z" fill="currentColor" />
  <path d="M168 344.28v100.16a207.82 207.82 0 0 0 125.89 16.08L174.83 341.46a4 4 0 0 0-6.83 2.82z" fill="currentColor" />
  <path d="M129.17 261.46l-67.83 67.83A209.1 209.1 0 0 0 136 425.8V264.28a4 4 0 0 0-6.83-2.82z" fill="currentColor" />
</svg>
