<svg xmlns="http://www.w3.org/2000/svg" xmlns:xlink="http://www.w3.org/1999/xlink" viewBox="0 0 512 512">
  <path d="M80 176a16 16 0 0 0-16 16v216c0 30.24 25.76 56 56 56h272c30.24 0 56-24.51 56-54.75V192a16 16 0 0 0-16-16z" fill="none" stroke="currentColor" stroke-linecap="round" stroke-linejoin="round" stroke-width="32" />
  <path d="M160 176v-32a96 96 0 0 1 96-96h0a96 96 0 0 1 96 96v32" fill="none" stroke="currentColor" stroke-linecap="round" stroke-linejoin="round" stroke-width="32" />
  <path d="M160 224v16a96 96 0 0 0 96 96h0a96 96 0 0 0 96-96v-16" fill="none" stroke="currentColor" stroke-linecap="round" stroke-linejoin="round" stroke-width="32" />
</svg>
