<svg xmlns="http://www.w3.org/2000/svg" xmlns:xlink="http://www.w3.org/1999/xlink" viewBox="0 0 512 512">
  <path d="M388 288a76 76 0 1 0 76 76a76.24 76.24 0 0 0-76-76z" fill="none" stroke="currentColor" stroke-miterlimit="10" stroke-width="32" />
  <path d="M124 288a76 76 0 1 0 76 76a76.24 76.24 0 0 0-76-76z" fill="none" stroke="currentColor" stroke-miterlimit="10" stroke-width="32" />
  <path fill="none" stroke="currentColor" stroke-linecap="round" stroke-linejoin="round" stroke-width="32" d="M256 360v-86l-64-42l80-88l40 72h56" />
  <path d="M320 136a31.89 31.89 0 0 0 32-32.1A31.55 31.55 0 0 0 320.2 72a32 32 0 1 0-.2 64z" fill="currentColor" />
</svg>
