<?xml version="1.0" standalone="no"?><!DOCTYPE svg PUBLIC "-//W3C//DTD SVG 1.1//EN" "http://www.w3.org/Graphics/SVG/1.1/DTD/svg11.dtd"><svg t="1691998794624" class="icon" viewBox="0 0 1024 1024" version="1.1" xmlns="http://www.w3.org/2000/svg" p-id="9154" xmlns:xlink="http://www.w3.org/1999/xlink" width="128" height="128"><path d="M489.376 534.624a31.904 31.904 0 0 0 45.248 0l304-304a31.968 31.968 0 1 0-45.248-45.248l-304 304a31.968 31.968 0 0 0 0 45.248" fill="currentColor" p-id="9155"></path><path d="M832 480a32 32 0 0 0-32 32l0.256 288L224 800.256 223.744 224H512a32 32 0 0 0 0-64H223.744A63.84 63.84 0 0 0 160 223.744v576.512C160 835.392 188.608 864 223.744 864h576.512A63.84 63.84 0 0 0 864 800.256V512a32 32 0 0 0-32-32" fill="currentColor" p-id="9156"></path></svg>
