<svg xmlns="http://www.w3.org/2000/svg" xmlns:xlink="http://www.w3.org/1999/xlink" viewBox="0 0 512 512">
  <path d="M421.83 293.82A144 144 0 0 0 218.18 90.17" fill="none" stroke="currentColor" stroke-miterlimit="10" stroke-width="32" />
  <path d="M353.94 225.94a48 48 0 0 0-67.88-67.88" fill="none" stroke="currentColor" stroke-miterlimit="10" stroke-width="32" />
  <path stroke="currentColor" stroke-linecap="round" stroke-miterlimit="10" stroke-width="32" d="M192 464v-48" fill="currentColor" />
  <path stroke="currentColor" stroke-linecap="round" stroke-miterlimit="10" stroke-width="32" d="M90.18 421.82l33.94-33.94" fill="currentColor" />
  <path stroke="currentColor" stroke-linecap="round" stroke-miterlimit="10" stroke-width="32" d="M48 320h48" fill="currentColor" />
  <path d="M286.06 158.06L172.92 271.19a32 32 0 0 1-45.25 0L105 248.57a32 32 0 0 1 0-45.26L218.18 90.17" fill="none" stroke="currentColor" stroke-linejoin="round" stroke-width="32" />
  <path d="M421.83 293.82L308.69 407a32 32 0 0 1-45.26 0l-22.62-22.63a32 32 0 0 1 0-45.26l113.13-113.17" fill="none" stroke="currentColor" stroke-linejoin="round" stroke-width="32" />
  <path fill="none" stroke="currentColor" stroke-linejoin="round" stroke-width="32" d="M139.6 169.98l67.88 67.89" />
  <path fill="none" stroke="currentColor" stroke-linejoin="round" stroke-width="32" d="M275.36 305.75l67.89 67.88" />
</svg>
