<svg xmlns="http://www.w3.org/2000/svg" xmlns:xlink="http://www.w3.org/1999/xlink" viewBox="0 0 512 512">
  <path fill="none" stroke="currentColor" stroke-linecap="round" stroke-linejoin="round" stroke-width="32" d="M192 448h128" />
  <path d="M384 208v32c0 70.4-57.6 128-128 128h0c-70.4 0-128-57.6-128-128v-32" fill="none" stroke="currentColor" stroke-linecap="round" stroke-linejoin="round" stroke-width="32" />
  <path fill="none" stroke="currentColor" stroke-linecap="round" stroke-linejoin="round" stroke-width="32" d="M256 368v80" />
  <path d="M256 320a78.83 78.83 0 0 1-56.55-24.1A80.89 80.89 0 0 1 176 239V128a79.69 79.69 0 0 1 80-80c44.86 0 80 35.14 80 80v111c0 44.66-35.89 81-80 81z" fill="currentColor" />
</svg>
