<svg xmlns="http://www.w3.org/2000/svg" xmlns:xlink="http://www.w3.org/1999/xlink" viewBox="0 0 512 512">
  <path d="M64 144h226.75a48 48 0 0 0 90.5 0H448a16 16 0 0 0 0-32h-66.75a48 48 0 0 0-90.5 0H64a16 16 0 0 0 0 32z" fill="currentColor" />
  <path d="M448 368h-66.75a48 48 0 0 0-90.5 0H64a16 16 0 0 0 0 32h226.75a48 48 0 0 0 90.5 0H448a16 16 0 0 0 0-32z" fill="currentColor" />
  <path d="M448 240H221.25a48 48 0 0 0-90.5 0H64a16 16 0 0 0 0 32h66.75a48 48 0 0 0 90.5 0H448a16 16 0 0 0 0-32z" fill="currentColor" />
</svg>
