<svg xmlns="http://www.w3.org/2000/svg" xmlns:xlink="http://www.w3.org/1999/xlink" viewBox="0 0 512 512">
  <rect x="336" y="336" width="80" height="80" rx="8" ry="8" fill="currentColor" />
  <rect x="272" y="272" width="64" height="64" rx="8" ry="8" fill="currentColor" />
  <rect x="416" y="416" width="64" height="64" rx="8" ry="8" fill="currentColor" />
  <rect x="432" y="272" width="48" height="48" rx="8" ry="8" fill="currentColor" />
  <rect x="272" y="432" width="48" height="48" rx="8" ry="8" fill="currentColor" />
  <path d="M448 32H304a32 32 0 0 0-32 32v144a32 32 0 0 0 32 32h144a32 32 0 0 0 32-32V64a32 32 0 0 0-32-32zm-32 136a8 8 0 0 1-8 8h-64a8 8 0 0 1-8-8v-64a8 8 0 0 1 8-8h64a8 8 0 0 1 8 8z" fill="currentColor" />
  <path d="M208 32H64a32 32 0 0 0-32 32v144a32 32 0 0 0 32 32h144a32 32 0 0 0 32-32V64a32 32 0 0 0-32-32zm-32 136a8 8 0 0 1-8 8h-64a8 8 0 0 1-8-8v-64a8 8 0 0 1 8-8h64a8 8 0 0 1 8 8z" fill="currentColor" />
  <path d="M208 272H64a32 32 0 0 0-32 32v144a32 32 0 0 0 32 32h144a32 32 0 0 0 32-32V304a32 32 0 0 0-32-32zm-32 136a8 8 0 0 1-8 8h-64a8 8 0 0 1-8-8v-64a8 8 0 0 1 8-8h64a8 8 0 0 1 8 8z" fill="currentColor" />
</svg>
