<svg xmlns="http://www.w3.org/2000/svg" xmlns:xlink="http://www.w3.org/1999/xlink" viewBox="0 0 512 512">
  <ellipse cx="256" cy="256" rx="36" ry="35.99" fill="currentColor" />
  <path d="M188.4 350.8l-14.62-16.44a117.91 117.91 0 0 1 0-156.71l14.62-16.43l32.87 29.24l-14.62 16.43a73.93 73.93 0 0 0 0 98.25l14.62 16.44z" fill="currentColor" />
  <path d="M323.6 350.8l-32.89-29.22l14.62-16.44a73.93 73.93 0 0 0 0-98.25l-14.62-16.43l32.87-29.24l14.62 16.43a117.91 117.91 0 0 1 0 156.71z" fill="currentColor" />
  <path d="M138.24 401.76l-15-16.06a189.85 189.85 0 0 1 0-259.4l15-16.07l32.14 30.05l-15 16.06a145.88 145.88 0 0 0 0 199.32l15 16.06z" fill="currentColor" />
  <path d="M373.76 401.76l-32.14-30l15-16.06a145.88 145.88 0 0 0 0-199.32l-15-16.06l32.14-30l15 16.07a189.85 189.85 0 0 1 0 259.4z" fill="currentColor" />
  <path d="M430.73 447l-32.79-29.33l14.66-16.39a218.2 218.2 0 0 0 0-290.56l-14.67-16.38L430.72 65l14.67 16.39a262.18 262.18 0 0 1 0 349.22z" fill="currentColor" />
  <path d="M81.27 447L66.6 430.61a262.18 262.18 0 0 1 0-349.22L81.28 65l32.79 29.34l-14.68 16.38a218.2 218.2 0 0 0 0 290.56l14.66 16.39z" fill="currentColor" />
</svg>
