<svg xmlns="http://www.w3.org/2000/svg" xmlns:xlink="http://www.w3.org/1999/xlink" viewBox="0 0 512 512">
  <path d="M465.94 119.76l-73.7-73.7A47.68 47.68 0 0 0 358.3 32H96a64 64 0 0 0-64 64v320a64 64 0 0 0 64 64h320a64 64 0 0 0 64-64V153.7a47.68 47.68 0 0 0-14.06-33.94zM120 112h176a8 8 0 0 1 8 8v48a8 8 0 0 1-8 8H120a8 8 0 0 1-8-8v-48a8 8 0 0 1 8-8zm139.75 319.91a80 80 0 1 1 76.16-76.16a80.06 80.06 0 0 1-76.16 76.16z" fill="currentColor" />
  <circle cx="256" cy="352" r="48" fill="currentColor" />
</svg>
