<svg xmlns="http://www.w3.org/2000/svg" xmlns:xlink="http://www.w3.org/1999/xlink" viewBox="0 0 512 512">
  <path d="M388 466h-68v-44h68a34 34 0 0 0 34-34v-68h44v68a78.09 78.09 0 0 1-78 78z" fill="currentColor" />
  <path d="M466 192h-44v-68a34 34 0 0 0-34-34h-68V46h68a78.09 78.09 0 0 1 78 78z" fill="currentColor" />
  <path d="M192 466h-68a78.09 78.09 0 0 1-78-78v-68h44v68a34 34 0 0 0 34 34h68z" fill="currentColor" />
  <path d="M90 192H46v-68a78.09 78.09 0 0 1 78-78h68v44h-68a34 34 0 0 0-34 34z" fill="currentColor" />
</svg>
