<svg xmlns="http://www.w3.org/2000/svg" xmlns:xlink="http://www.w3.org/1999/xlink" viewBox="0 0 512 512">
  <path fill="none" stroke="currentColor" stroke-linecap="round" stroke-linejoin="round" stroke-width="32" d="M256 32v448" />
  <path d="M313.72 80A111.47 111.47 0 0 1 256 96a111.47 111.47 0 0 1-57.72-16" fill="none" stroke="currentColor" stroke-linecap="round" stroke-linejoin="round" stroke-width="32" />
  <path d="M198.28 432a112.11 112.11 0 0 1 115.44 0" fill="none" stroke="currentColor" stroke-linecap="round" stroke-linejoin="round" stroke-width="32" />
  <path fill="none" stroke="currentColor" stroke-linecap="round" stroke-linejoin="round" stroke-width="32" d="M449.99 144L62.01 368" />
  <path d="M437.27 218a112.09 112.09 0 0 1-57.71-100" fill="none" stroke="currentColor" stroke-linecap="round" stroke-linejoin="round" stroke-width="32" />
  <path d="M74.73 294a112.09 112.09 0 0 1 57.71 100" fill="none" stroke="currentColor" stroke-linecap="round" stroke-linejoin="round" stroke-width="32" />
  <path fill="none" stroke="currentColor" stroke-linecap="round" stroke-linejoin="round" stroke-width="32" d="M62.01 144l387.98 224" />
  <path d="M74.73 218a112.09 112.09 0 0 0 57.71-100" fill="none" stroke="currentColor" stroke-linecap="round" stroke-linejoin="round" stroke-width="32" />
  <path d="M437.27 294a112.09 112.09 0 0 0-57.71 100" fill="none" stroke="currentColor" stroke-linecap="round" stroke-linejoin="round" stroke-width="32" />
</svg>
