<svg xmlns="http://www.w3.org/2000/svg" xmlns:xlink="http://www.w3.org/1999/xlink" viewBox="0 0 512 512">
  <path d="M259.92 262.91L216.4 149.77a9 9 0 0 0-16.8 0l-43.52 113.14a9 9 0 0 1-5.17 5.17L37.77 311.6a9 9 0 0 0 0 16.8l113.14 43.52a9 9 0 0 1 5.17 5.17l43.52 113.14a9 9 0 0 0 16.8 0l43.52-113.14a9 9 0 0 1 5.17-5.17l113.14-43.52a9 9 0 0 0 0-16.8l-113.14-43.52a9 9 0 0 1-5.17-5.17z" fill="none" stroke="currentColor" stroke-linecap="round" stroke-linejoin="round" stroke-width="32" />
  <path fill="none" stroke="currentColor" stroke-linecap="round" stroke-linejoin="round" stroke-width="32" d="M108 68L88 16L68 68L16 88l52 20l20 52l20-52l52-20l-52-20z" />
  <path fill="none" stroke="currentColor" stroke-linecap="round" stroke-linejoin="round" stroke-width="32" d="M426.67 117.33L400 48l-26.67 69.33L304 144l69.33 26.67L400 240l26.67-69.33L496 144l-69.33-26.67z" />
</svg>
