<svg xmlns="http://www.w3.org/2000/svg" xmlns:xlink="http://www.w3.org/1999/xlink" viewBox="0 0 512 512">
  <path fill="none" stroke="currentColor" stroke-linecap="round" stroke-linejoin="round" stroke-width="32" d="M256 400v64" />
  <path fill="none" stroke="currentColor" stroke-linecap="round" stroke-linejoin="round" stroke-width="32" d="M256 208v64" />
  <path fill="none" stroke="currentColor" stroke-linecap="round" stroke-linejoin="round" stroke-width="32" d="M256 48v32" />
  <path d="M416 208H102.63a16 16 0 0 1-11.32-4.69L32 144l59.31-59.31A16 16 0 0 1 102.63 80H416a16 16 0 0 1 16 16v96a16 16 0 0 1-16 16z" fill="none" stroke="currentColor" stroke-linecap="round" stroke-linejoin="round" stroke-width="32" />
  <path d="M96 400h313.37a16 16 0 0 0 11.32-4.69L480 336l-59.31-59.31a16 16 0 0 0-11.32-4.69H96a16 16 0 0 0-16 16v96a16 16 0 0 0 16 16z" fill="none" stroke="currentColor" stroke-linecap="round" stroke-linejoin="round" stroke-width="32" />
</svg>
